Normalized EMG Linear Envelopes
nRows=227
nColumns=4

endheader
time	 med_gas_r	  soleus_r	 tib_ant_r	
2.69456	  0.010856	  0.009979	  0.003887	
2.72782	  0.010247	  0.010454	  0.004689	
2.76109	  0.009733	  0.010878	  0.005431	
2.79435	  0.009364	  0.011216	  0.006075	
2.82762	  0.009171	  0.011441	  0.006547	
2.86089	  0.009167	  0.011537	  0.006765	
2.89415	  0.009336	  0.011504	  0.006692	
2.92742	  0.009632	  0.011361	  0.006371	
2.96069	  0.009978	  0.011143	  0.005913	
2.99395	  0.010284	  0.010905	  0.005443	
3.02722	  0.010470	  0.010707	  0.005050	
3.06048	  0.010492	  0.010600	  0.004764	
3.09375	  0.010347	  0.010608	  0.004568	
3.12702	  0.010078	  0.010726	  0.004423	
3.16028	  0.009765	  0.010930	  0.004295	
3.19355	  0.009502	  0.011185	  0.004166	
3.22681	  0.009372	  0.011456	  0.004040	
3.26008	  0.009416	  0.011708	  0.003940	
3.29335	  0.009624	  0.011913	  0.003902	
3.32661	  0.009939	  0.012050	  0.003967	
3.35988	  0.010276	  0.012108	  0.004171	
3.39315	  0.010558	  0.012093	  0.004546	
3.42641	  0.010746	  0.012026	  0.005110	
3.45968	  0.010854	  0.011940	  0.005847	
3.49294	  0.010928	  0.011877	  0.006687	
3.52621	  0.011018	  0.011872	  0.007512	
3.55948	  0.011143	  0.011944	  0.008188	
3.59274	  0.011290	  0.012085	  0.008598	
3.62601	  0.011430	  0.012271	  0.008674	
3.65927	  0.011529	  0.012467	  0.008407	
3.69254	  0.011560	  0.012637	  0.007851	
3.72581	  0.011491	  0.012754	  0.007106	
3.75907	  0.011305	  0.012802	  0.006290	
3.79234	  0.011010	  0.012786	  0.005503	
3.8256	  0.010652	  0.012730	  0.004801	
3.85887	  0.010304	  0.012663	  0.004199	
3.89214	  0.010043	  0.012601	  0.003698	
3.9254	  0.009920	  0.012537	  0.003300	
3.95867	  0.009948	  0.012449	  0.003032	
3.99194	  0.010111	  0.012318	  0.002945	
4.0252	  0.010376	  0.012139	  0.003131	
4.05847	  0.010711	  0.011924	  0.003728	
4.09173	  0.011094	  0.011683	  0.004926	
4.125	  0.011512	  0.011425	  0.006937	
4.15827	  0.011938	  0.011162	  0.009918	
4.19153	  0.012317	  0.010916	  0.013855	
4.2248	  0.012558	  0.010716	  0.018450	
4.25806	  0.012563	  0.010582	  0.023120	
4.29133	  0.012283	  0.010511	  0.027134	
4.3246	  0.011760	  0.010482	  0.029854	
4.35786	  0.011109	  0.010465	  0.030949	
4.39113	  0.010472	  0.010437	  0.030525	
4.4244	  0.009952	  0.010386	  0.029194	
4.45766	  0.009599	  0.010323	  0.028072	
4.49093	  0.009427	  0.010277	  0.028656	
4.52419	  0.009442	  0.010299	  0.032545	
4.55746	  0.009660	  0.010466	  0.041120	
4.59073	  0.010110	  0.010867	  0.055288	
4.62399	  0.010837	  0.011585	  0.075294	
4.65726	  0.011892	  0.012649	  0.100476	
4.69052	  0.013318	  0.014002	  0.129063	
4.72379	  0.015129	  0.015508	  0.158361	
4.75706	  0.017320	  0.017013	  0.185617	
4.79032	  0.019877	  0.018443	  0.209212	
4.82359	  0.022793	  0.019863	  0.229367	
4.85685	  0.026054	  0.021468	  0.247737	
4.89012	  0.029644	  0.023521	  0.266300	
4.92339	  0.033569	  0.026300	  0.286484	
4.95665	  0.037854	  0.030058	  0.309083	
4.98992	  0.042503	  0.034961	  0.334539	
5.02319	  0.047408	  0.040973	  0.362980	
5.05645	  0.052327	  0.047759	  0.394025	
5.08972	  0.056981	  0.054717	  0.426873	
5.12298	  0.061221	  0.061186	  0.460770	
5.15625	  0.065121	  0.066715	  0.495246	
5.18952	  0.068882	  0.071211	  0.529677	
5.22278	  0.072631	  0.074879	  0.562710	
5.25605	  0.076284	  0.078030	  0.592422	
5.28931	  0.079596	  0.080932	  0.617223	
5.32258	  0.082310	  0.083729	  0.636507	
5.35585	  0.084248	  0.086410	  0.650482	
5.38911	  0.085327	  0.088821	  0.659760	
5.42238	  0.085571	  0.090755	  0.665540	
5.45565	  0.085204	  0.092150	  0.670110	
5.48891	  0.084694	  0.093188	  0.676607	
5.52218	  0.084633	  0.094185	  0.687650	
5.55544	  0.085446	  0.095322	  0.703802	
5.58871	  0.087153	  0.096508	  0.723071	
5.62198	  0.089391	  0.097521	  0.741837	
5.65524	  0.091681	  0.098284	  0.756494	
5.68851	  0.093749	  0.098966	  0.764771	
5.72177	  0.095605	  0.099785	  0.766043	
5.75504	  0.097336	  0.100691	  0.760824	
5.78831	  0.098820	  0.101260	  0.750108	
5.82157	  0.099655	  0.100926	  0.735094	
5.85484	  0.099347	  0.099346	  0.717269	
5.8881	  0.097596	  0.096603	  0.698493	
5.92137	  0.094466	  0.093163	  0.680912	
5.95464	  0.090397	  0.089718	  0.666711	
5.9879	  0.086129	  0.087005	  0.657717	
6.02117	  0.082511	  0.085588	  0.654790	
6.05444	  0.080232	  0.085609	  0.657122	
6.0877	  0.079546	  0.086684	  0.661987	
6.12097	  0.080229	  0.088102	  0.665578	
6.15423	  0.081808	  0.089232	  0.664888	
6.1875	  0.083923	  0.089855	  0.659542	
6.22077	  0.086532	  0.090191	  0.652152	
6.25403	  0.089829	  0.090691	  0.646820	
6.2873	  0.093964	  0.091792	  0.646845	
6.32056	  0.098802	  0.093734	  0.653273	
6.35383	  0.103856	  0.096452	  0.665042	
6.3871	  0.108423	  0.099530	  0.680069	
6.42036	  0.111869	  0.102299	  0.695987	
6.45363	  0.113891	  0.104114	  0.710080	
6.4869	  0.114634	  0.104682	  0.719213	
6.52016	  0.114569	  0.104227	  0.720606	
6.55343	  0.114210	  0.103336	  0.713152	
6.58669	  0.113838	  0.102600	  0.698184	
6.61996	  0.113479	  0.102343	  0.679050	
6.65323	  0.113110	  0.102628	  0.659752	
6.68649	  0.112871	  0.103417	  0.643365	
6.71976	  0.113035	  0.104660	  0.630901	
6.75302	  0.113757	  0.106199	  0.621219	
6.78629	  0.114834	  0.107678	  0.612185	
6.81956	  0.115722	  0.108628	  0.602439	
6.85282	  0.115806	  0.108715	  0.592485	
6.88609	  0.114743	  0.107959	  0.584354	
6.91935	  0.112661	  0.106755	  0.580248	
6.95262	  0.110147	  0.105720	  0.581354	
6.98589	  0.108003	  0.105433	  0.587557	
7.01915	  0.106909	  0.106171	  0.597874	
7.05242	  0.107076	  0.107722	  0.610995	
7.08569	  0.108100	  0.109383	  0.625610	
7.11895	  0.109088	  0.110225	  0.640578	
7.15222	  0.109065	  0.109546	  0.654931	
7.18548	  0.107441	  0.107238	  0.667684	
7.21875	  0.104274	  0.103831	  0.677585	
7.25202	  0.100211	  0.100180	  0.683177	
7.28528	  0.096129	  0.097024	  0.683260	
7.31855	  0.092750	  0.094705	  0.677360	
7.35181	  0.090425	  0.093191	  0.665829	
7.38508	  0.089166	  0.092298	  0.649749	
7.41835	  0.088794	  0.091890	  0.631046	
7.45161	  0.089075	  0.091929	  0.612754	
7.48488	  0.089815	  0.092419	  0.598838	
7.51815	  0.090912	  0.093348	  0.593051	
7.55141	  0.092362	  0.094661	  0.597087	
7.58468	  0.094168	  0.096224	  0.609195	
7.61794	  0.096245	  0.097809	  0.624512	
7.65121	  0.098439	  0.099140	  0.637291	
7.68448	  0.100637	  0.099988	  0.643656	
7.71774	  0.102805	  0.100234	  0.642951	
7.75101	  0.104825	  0.099788	  0.636967	
7.78427	  0.106292	  0.098482	  0.628179	
7.81754	  0.106561	  0.096104	  0.618737	
7.85081	  0.105113	  0.092622	  0.610657	
7.88407	  0.101937	  0.088408	  0.606082	
7.91734	  0.097619	  0.084215	  0.606578	
7.9506	  0.093081	  0.080905	  0.612011	
7.98387	  0.089182	  0.079126	  0.620614	
8.01714	  0.086497	  0.079167	  0.630578	
8.0504	  0.085330	  0.081042	  0.641441	
8.08367	  0.085879	  0.084654	  0.653381	
8.11694	  0.088307	  0.089835	  0.664983	
8.1502	  0.092619	  0.096217	  0.672235	
8.18347	  0.098415	  0.103076	  0.670490	
8.21673	  0.104767	  0.109375	  0.657953	
8.25	  0.110400	  0.114082	  0.637559	
8.28327	  0.114130	  0.116573	  0.615831	
8.31653	  0.115315	  0.116825	  0.599918	
8.3498	  0.114052	  0.115303	  0.594804	
8.38306	  0.111051	  0.112685	  0.601687	
8.41633	  0.107309	  0.109657	  0.617734	
8.4496	  0.103747	  0.106860	  0.637345	
8.48286	  0.100924	  0.104834	  0.654542	
8.51613	  0.098905	  0.103845	  0.665218	
8.5494	  0.097321	  0.103674	  0.668041	
8.58266	  0.095630	  0.103598	  0.664021	
8.61593	  0.093458	  0.102736	  0.655564	
8.64919	  0.090813	  0.100564	  0.645671	
8.68246	  0.088064	  0.097264	  0.637330	
8.71573	  0.085722	  0.093610	  0.633044	
8.74899	  0.084219	  0.090547	  0.634472	
8.78226	  0.083793	  0.088746	  0.642118	
8.81552	  0.084470	  0.088383	  0.655103	
8.84879	  0.086067	  0.089141	  0.671217	
8.88206	  0.088185	  0.090363	  0.687384	
8.91532	  0.090281	  0.091301	  0.700357	
8.94859	  0.091814	  0.091392	  0.707387	
8.98185	  0.092417	  0.090439	  0.706833	
9.01512	  0.091996	  0.088631	  0.698756	
9.04839	  0.090728	  0.086427	  0.685221	
9.08165	  0.088985	  0.084384	  0.669879	
9.11492	  0.087194	  0.082980	  0.656828	
9.14819	  0.085648	  0.082459	  0.649388	
9.18145	  0.084358	  0.082740	  0.649487	
9.21472	  0.083068	  0.083445	  0.657762	
9.24798	  0.081448	  0.084044	  0.673927	
9.28125	  0.079330	  0.084065	  0.696919	
9.31452	  0.076798	  0.083272	  0.724677	
9.34778	  0.074087	  0.081709	  0.753721	
9.38105	  0.071402	  0.079589	  0.778967	
9.41431	  0.068824	  0.077112	  0.794313	
9.44758	  0.066394	  0.074384	  0.794274	
9.48085	  0.064256	  0.071500	  0.776126	
9.51411	  0.062687	  0.068672	  0.741343	
9.54738	  0.061961	  0.066251	  0.695379	
9.58065	  0.062150	  0.064574	  0.645937	
9.61391	  0.063054	  0.063769	  0.600735	
9.64718	  0.064288	  0.063683	  0.565700	
9.68044	  0.065487	  0.064032	  0.543952	
9.71371	  0.066494	  0.064666	  0.535586	
9.74698	  0.067406	  0.065693	  0.538281	
9.78024	  0.068438	  0.067313	  0.548586	
9.81351	  0.069658	  0.069437	  0.563220	
9.84677	  0.070794	  0.071461	  0.579409	
9.88004	  0.071254	  0.072423	  0.594052	
9.91331	  0.070405	  0.071494	  0.602847	
9.94657	  0.067944	  0.068434	  0.600819	
9.97984	  0.064082	  0.063676	  0.584326	
10.0131	  0.059407	  0.058006	  0.552943	
10.0464	  0.054548	  0.052111	  0.509701	
10.0796	  0.049903	  0.046335	  0.459644	
10.1129	  0.045591	  0.040738	  0.407954	
10.1462	  0.041593	  0.035299	  0.358660	
10.1794	  0.037895	  0.030073	  0.314205	
10.2127	  0.034557	  0.025213	  0.275631	
